<svg xmlnsSvg="http://www.w3.org/2000/svg" version="1.1" xmlns:xlink="http://www.w3.org/1999/xlink" xmlns:svgjs="http://svgjs.dev/svgjs" width="1000" height="625" viewBox="0 0 1000 625"><g transform="matrix(1,0,0,1,0,0)"><svg viewBox="0 0 512 320" data-background-color="#ff4136" preserveAspectRatio="xMidYMid meet" height="625" width="1000" xmlns="http://www.w3.org/2000/svg" xmlns:xlink="http://www.w3.org/1999/xlink"><g id="tight-bounds" transform="matrix(1,0,0,1,0,0)"><svg viewBox="0 0 512 320" height="320" width="512"><g><svg></svg></g><g><svg viewBox="0 0 512 320" height="320" width="512"><g><path d="M96 160c0-88.366 71.634-160 160-160 88.366 0 160 71.634 160 160 0 88.366-71.634 160-160 160-88.366 0-160-71.634-160-160zM256 312.736c84.354 0 152.736-68.382 152.736-152.736 0-84.354-68.382-152.736-152.736-152.736-84.354 0-152.736 68.382-152.736 152.736 0 84.354 68.382 152.736 152.736 152.736z" fill="#ffffff" fill-rule="nonzero" stroke="none" stroke-width="1" stroke-linecap="butt" stroke-linejoin="miter" stroke-miterlimit="10" stroke-dasharray="" stroke-dashoffset="0" font-family="none" font-weight="none" font-size="none" text-anchor="none" style="mix-blend-mode: normal" data-fill-palette-color="tertiary"></path></g><g transform="matrix(1,0,0,1,186.88835218131095,80)"><svg viewBox="0 0 138.2232956373781 160" height="160" width="138.2232956373781"><g><svg viewBox="0 0 255.99999999999997 296.33210386949895" height="160" width="138.2232956373781"><g transform="matrix(1,0,0,1,0,174.65902159061827)"><svg viewBox="0 0 255.99999999999997 121.67308227888066" height="121.67308227888066" width="255.99999999999997"><g id="textblocktransform"><svg viewBox="0 0 255.99999999999997 121.67308227888066" height="121.67308227888066" width="255.99999999999997" id="textblock"><g><svg viewBox="0 0 255.99999999999997 74.5901726427623" height="74.5901726427623" width="255.99999999999997"><g transform="matrix(1,0,0,1,0,0)"><svg width="255.99999999999997" viewBox="3.15 -42.3 188.23 54.849999999999994" height="74.5901726427623" data-palette-color="#ffffff"><path d="M16.1 0.85Q8.85 0.85 3.15-1.85L3.15-1.85 3.15-6.45Q8.9-3.4 16.1-3.4L16.1-3.4Q20.25-3.4 22.18-5.15 24.1-6.9 24.1-9.75L24.1-9.75Q24.1-12.45 22.33-13.8 20.55-15.15 17.1-16.15L17.1-16.15 13.7-17.1Q10.8-17.95 8.75-19.05 6.7-20.15 5.33-22.23 3.95-24.3 3.95-27.65L3.95-27.65Q3.95-33 7.08-35.8 10.2-38.6 15.95-38.6L15.95-38.6Q19.3-38.6 21.85-37.98 24.4-37.35 27.15-36.1L27.15-36.1 27.15-31.6Q22.05-34.35 15.95-34.35L15.95-34.35Q12.25-34.35 10.55-32.63 8.85-30.9 8.85-27.9L8.85-27.9Q8.9-25.15 10.53-23.85 12.15-22.55 15.6-21.55L15.6-21.55 19.05-20.6Q22.1-19.75 24.23-18.63 26.35-17.5 27.68-15.38 29-13.25 29-9.85L29-9.85Q28.95-4.9 25.53-2.02 22.1 0.85 16.1 0.85L16.1 0.85ZM48.6 0.85Q44.2 0.85 41.12-1.07 38.05-3 36.5-6.33 34.95-9.65 34.95-13.8L34.95-13.8Q34.95-17.95 36.5-21.28 38.05-24.6 41.12-26.53 44.2-28.45 48.6-28.45L48.6-28.45Q53-28.45 56.07-26.53 59.15-24.6 60.67-21.28 62.2-17.95 62.2-13.8L62.2-13.8Q62.2-9.65 60.67-6.33 59.15-3 56.07-1.07 53 0.85 48.6 0.85L48.6 0.85ZM48.6-3.4Q52.75-3.4 55.02-6.3 57.3-9.2 57.3-13.8L57.3-13.8Q57.3-18.4 55.02-21.28 52.75-24.15 48.6-24.15L48.6-24.15Q44.45-24.15 42.15-21.28 39.85-18.4 39.85-13.8L39.85-13.8Q39.85-9.2 42.15-6.3 44.45-3.4 48.6-3.4L48.6-3.4ZM81.2 0.85Q74.75 0.8 71.27-3.15 67.8-7.1 67.8-13.85L67.8-13.85Q67.8-20.6 71.27-24.5 74.75-28.4 81.2-28.45L81.2-28.45Q83.45-28.45 85.07-28.13 86.7-27.8 88.55-27.05L88.55-27.05 88.55-22.5Q86.75-23.35 85.12-23.7 83.5-24.05 81.55-24.05L81.55-24.05Q76.9-24 74.8-21.28 72.7-18.55 72.7-13.9L72.7-13.9Q72.7-9.15 74.8-6.35 76.9-3.55 81.45-3.5L81.45-3.5Q85-3.5 89.2-5.65L89.2-5.65 90.7-1.55Q86.15 0.85 81.2 0.85L81.2 0.85ZM96.79-32.85L96.79-40.4 101.49-40.4 101.49-32.85 96.79-32.85ZM96.79 0L96.79-27.65 101.49-27.65 101.49 0 96.79 0ZM118.99-27.65Q123.39-27.65 125.69-26.18 127.99-24.7 128.74-22.23 129.49-19.75 129.49-16L129.49-16 129.49 0 124.79 0 124.79-2.75Q122.89-0.95 120.99-0.15 119.09 0.65 116.89 0.65L116.89 0.65Q114.29 0.65 112.19-0.48 110.09-1.6 108.87-3.73 107.64-5.85 107.64-8.75L107.64-8.75Q107.64-13.25 110.44-15.73 113.24-18.2 117.99-18.2L117.99-18.2Q121.74-18.2 124.74-16.55L124.74-16.55Q124.69-19 124.24-20.45 123.79-21.9 122.39-22.68 120.99-23.45 118.24-23.45L118.24-23.45 114.54-23.45 114.54-27.65 118.99-27.65ZM117.54-3.4Q119.24-3.4 121.12-4.2 122.99-5 124.79-6.6L124.79-6.6 124.79-12.9Q121.99-14.3 118.69-14.3L118.69-14.3Q116.04-14.3 114.24-13.03 112.44-11.75 112.44-8.75L112.44-8.75Q112.44-5.95 113.97-4.67 115.49-3.4 117.54-3.4L117.54-3.4ZM144.29 0.65Q140.54 0.65 138.89-0.85 137.24-2.35 137.24-5.9L137.24-5.9 137.24-42.3 141.94-42.3 141.94-7.15Q141.94-5.15 142.56-4.42 143.19-3.7 144.94-3.7L144.94-3.7Q146.34-3.7 147.44-4L147.44-4 147.44 0.3Q145.44 0.65 144.29 0.65L144.29 0.65ZM160.24 0.65Q156.49 0.65 154.84-0.85 153.19-2.35 153.19-5.9L153.19-5.9 153.19-42.3 157.88-42.3 157.88-7.15Q157.88-5.15 158.51-4.42 159.13-3.7 160.88-3.7L160.88-3.7Q162.28-3.7 163.38-4L163.38-4 163.38 0.3Q161.38 0.65 160.24 0.65L160.24 0.65ZM186.63-27.65L191.38-27.65 179.13 4.45Q177.83 7.85 176.78 9.5 175.73 11.15 174.31 11.85 172.88 12.55 170.38 12.55L170.38 12.55Q168.93 12.55 167.43 12.15L167.43 12.15 167.43 7.9Q168.73 8.2 170.03 8.2L170.03 8.2Q171.73 8.2 172.71 7.2 173.68 6.2 174.83 3.25L174.83 3.25 176.13-0.1 165.63-27.65 170.53-27.65 178.48-6.25 186.63-27.65Z" opacity="1" transform="matrix(1,0,0,1,0,0)" fill="#ffffff" class="wordmark-text-0" data-fill-palette-color="primary" id="text-0"></path></svg></g></svg></g><g transform="matrix(1,0,0,1,0,92.19912223957505)"><svg viewBox="0 0 255.99999999999997 29.4739600393056" height="29.4739600393056" width="255.99999999999997"><g transform="matrix(1,0,0,1,0,0)"><svg width="255.99999999999997" viewBox="2.64 -33.89 298.11 34.330000000000005" height="29.4739600393056" data-palette-color="#ffffff"><path d="M10.99 0.44L10.99 0.44Q8.84 0.44 6.59-0.1 4.35-0.63 2.88-1.46L2.88-1.46 2.64-7.76 4.74-7.96 6.1-3.61Q7.28-2.83 8.72-2.42 10.16-2 11.72-2L11.72-2Q14.11-2 15.58-3.17 17.04-4.35 17.04-6.35L17.04-6.35Q17.04-8.06 16.02-9.2 14.99-10.35 13.35-11.21 11.72-12.06 9.89-12.87 8.06-13.67 6.45-14.72 4.83-15.77 3.78-17.31 2.73-18.85 2.73-21.14L2.73-21.14Q2.73-23.49 4.08-25.32 5.42-27.15 7.76-28.15 10.11-29.15 13.13-29.15L13.13-29.15Q14.4-29.15 15.6-29.03 16.8-28.91 17.82-28.64 18.85-28.37 19.68-28.03L19.68-28.03 20.07-21.92 17.97-21.73 16.6-25.83Q15.04-26.81 12.6-26.81L12.6-26.81Q10.11-26.81 8.62-25.59 7.13-24.37 7.13-22.41L7.13-22.41Q7.13-20.65 8.18-19.46 9.23-18.26 10.86-17.38 12.5-16.5 14.33-15.7 16.16-14.89 17.8-13.87 19.43-12.84 20.48-11.35 21.53-9.86 21.53-7.67L21.53-7.67Q21.53-5.32 20.17-3.49 18.8-1.66 16.43-0.61 14.06 0.44 10.99 0.44ZM35.94 0.39L35.94 0.39Q32.76 0.39 30.39-0.98 28.02-2.34 26.71-4.81 25.39-7.28 25.39-10.45L25.39-10.45Q25.39-13.77 26.83-16.21 28.27-18.65 30.73-20.02 33.2-21.39 36.13-21.39L36.13-21.39Q39.16-21.39 41.4-20.04 43.65-18.7 44.92-16.28 46.19-13.87 46.19-10.64L46.19-10.64Q46.19-7.57 44.82-5.05 43.45-2.54 41.14-1.07 38.82 0.39 35.94 0.39ZM36.42-1.9L36.42-1.9Q38.08-1.9 39.3-2.91 40.52-3.91 41.21-5.69 41.89-7.47 41.89-9.77L41.89-9.77Q41.89-13.96 40.16-16.58 38.43-19.19 35.59-19.19L35.59-19.19Q32.96-19.19 31.37-17.02 29.78-14.84 29.78-11.18L29.78-11.18Q29.78-8.45 30.64-6.35 31.49-4.25 33.01-3.08 34.52-1.9 36.42-1.9ZM60.25 0.39L60.25 0.39Q57.51 0.39 55.22-0.85 52.92-2.1 51.56-4.47 50.19-6.84 50.19-10.11L50.19-10.11Q50.19-13.28 51.63-15.82 53.07-18.36 55.56-19.87 58.05-21.39 61.23-21.39L61.23-21.39Q63.37-21.39 64.84-20.85 66.3-20.31 67.06-19.43 67.82-18.55 67.82-17.58L67.82-17.58Q67.82-16.8 67.33-16.28 66.84-15.77 65.96-15.77L65.96-15.77Q65.13-15.77 64.59-16.06 64.06-16.36 63.18-17.24L63.18-17.24 60.69-19.73 62.45-19.24Q60.49-19.68 58.69-18.87 56.88-18.07 55.71-16.09 54.54-14.11 54.54-10.99L54.54-10.99Q54.54-7.08 56.51-4.98 58.49-2.88 61.47-2.88L61.47-2.88Q63.33-2.88 64.67-3.56 66.01-4.25 67.23-5.76L67.23-5.76 68.55-4.64Q67.18-2.1 65.08-0.85 62.98 0.39 60.25 0.39ZM80.8 0L70.26 0 70.16-1.81 73.43-2.49Q73.48-2.69 73.5-3.17 73.53-3.66 73.58-4.74 73.63-5.81 73.63-7.71L73.63-7.71 73.63-10.94Q73.63-12.99 73.53-14.65 73.43-16.31 73.28-17.19L73.28-17.19 70.01-17.87 70.01-19.48 76.95-21.29 77.68-20.61Q77.53-19.09 77.46-17.63 77.39-16.16 77.39-14.21L77.39-14.21 77.39-8.06Q77.39-5.81 77.46-4.35 77.53-2.88 77.63-2.49L77.63-2.49 80.9-1.81 80.8 0ZM75.53-26.81L75.53-26.81Q74.26-26.81 73.38-27.64 72.5-28.47 72.5-29.69L72.5-29.69Q72.5-30.86 73.38-31.71 74.26-32.57 75.53-32.57L75.53-32.57Q76.8-32.57 77.63-31.71 78.46-30.86 78.46-29.69L78.46-29.69Q78.46-28.47 77.63-27.64 76.8-26.81 75.53-26.81ZM91.59 0.39L91.59 0.39Q89.64 0.39 88.12-0.39 86.61-1.17 85.76-2.39 84.9-3.61 84.9-4.93L84.9-4.93Q84.9-6.54 85.95-7.62 87-8.69 89.49-9.52L89.49-9.52 96.91-12.01 96.91-14.5Q96.91-15.72 96.18-16.72 95.45-17.72 94.23-18.31 93.01-18.9 91.49-18.9L91.49-18.9Q90.27-18.9 89.83-18.38 89.39-17.87 89.3-16.36L89.3-16.36 89.2-14.31Q87.44-13.92 86.22-14.43 85-14.94 85-16.11L85-16.11Q85-16.94 85.73-17.77 86.46-18.6 87.64-19.36 88.81-20.12 90.15-20.65 91.49-21.19 92.81-21.39L92.81-21.39Q96.38-21.39 98.57-19.51 100.77-17.63 100.82-14.5L100.82-14.5 100.72-6.3Q100.72-5.42 100.8-4.52 100.87-3.61 101.02-3.17L101.02-3.17 104.14-2.59 104.14-1.07 101.75-0.2Q101.06 0.1 100.48 0.24 99.89 0.39 99.5 0.39L99.5 0.39Q97.99 0.39 97.55-1.32L97.55-1.32 97.01-3.22 97.74-3.22Q96.13-1.42 94.64-0.51 93.15 0.39 91.59 0.39ZM92.91-2.49L92.91-2.49Q94.03-2.49 95.03-3 96.03-3.52 96.91-4.59L96.91-4.59 96.91-9.72 91.45-8.25Q90.27-7.96 89.76-7.32 89.25-6.69 89.25-5.71L89.25-5.71Q89.25-4.49 90.35-3.49 91.45-2.49 92.91-2.49ZM116.93 0L106.53 0 106.43-1.81 109.61-2.49Q109.7-3.03 109.73-4.13 109.75-5.22 109.8-7.08 109.85-8.94 109.85-11.62L109.85-11.62 109.85-17.72Q109.85-19.53 109.83-21.48 109.8-23.44 109.78-25.2 109.75-26.95 109.7-28.2 109.66-29.44 109.66-29.83L109.66-29.83 106.04-30.32 105.94-31.88 112.93-33.89 113.85-33.2Q113.81-31.1 113.76-29.08 113.71-27.05 113.68-24.56 113.66-22.07 113.66-18.55L113.66-18.55 113.61-10.69Q113.61-7.81 113.68-5.49 113.76-3.17 113.85-2.49L113.85-2.49 117.03-1.81 116.93 0ZM153.21-6.98L152.33-6.98 152.33-17.92Q152.33-20.8 152.3-22.53 152.28-24.27 152.2-25.12 152.13-25.98 152.08-26.12L152.08-26.12 148.76-26.81 148.91-28.66 158.19-28.66 158.33-26.81 155.3-26.12Q155.3-25.98 155.23-25.12 155.16-24.27 155.11-22.51 155.06-20.75 155.06-17.92L155.06-17.92 155.06-6.3Q155.06-4.74 155.06-3.13 155.06-1.51 155.11 0.2L155.11 0.2 152.91 0.2 134.94-23.97 136.02-23.97 136.02-10.89Q136.02-7.96 136.07-6.2 136.12-4.44 136.19-3.59 136.26-2.73 136.31-2.54L136.31-2.54 139.63-1.86 139.48 0 130.11 0 129.96-1.86 132.94-2.54Q133.04-2.73 133.09-3.56 133.14-4.39 133.19-6.18 133.23-7.96 133.23-10.89L133.23-10.89 133.23-19.24Q133.23-21.44 133.19-22.85 133.14-24.27 133.09-25.05 133.04-25.83 132.94-26.12L132.94-26.12 129.96-26.81 130.11-28.66 136.8-28.66 153.21-6.98ZM172.34 0.39L172.34 0.39Q169.51 0.39 167.22-0.88 164.92-2.15 163.6-4.52 162.28-6.88 162.28-10.11L162.28-10.11Q162.28-13.57 163.7-16.11 165.12-18.65 167.41-20.04 169.71-21.44 172.34-21.39L172.34-21.39Q176.15-21.34 178.3-18.87 180.45-16.41 180.45-11.82L180.45-11.82 180.45-10.94 165.46-10.94 165.46-13.09 177.23-13.09 176.69-12.45 176.69-13.48Q176.69-16.26 175.44-17.8 174.2-19.34 171.95-19.34L171.95-19.34Q170.59-19.34 169.32-18.53 168.05-17.72 167.27-16.09 166.48-14.45 166.48-11.96L166.48-11.96 166.48-11.38Q166.48-7.37 168.46-5.13 170.44-2.88 173.56-2.88L173.56-2.88Q175.32-2.88 176.66-3.54 178.01-4.2 179.28-5.76L179.28-5.76 180.5-4.64Q179.13-2.1 177.03-0.85 174.93 0.39 172.34 0.39ZM198.17-4.25L199.05-3.03Q198.12-1.42 196.51-0.51 194.9 0.39 193.14 0.39L193.14 0.39Q190.21 0.39 188.28-1.42 186.35-3.22 186.35-6.84L186.35-6.84 186.5-18.51 183.08-18.51 183.08-19.53 189.38-25.24 190.31-25.24 190.21-19.63 190.16-7.62Q190.16-5.08 191.26-3.86 192.36-2.64 194.36-2.64L194.36-2.64Q195.49-2.64 196.44-3.1 197.39-3.56 198.17-4.25L198.17-4.25ZM197.58-18.51L188.45-18.51 188.45-20.95 197.58-20.95 197.58-18.51ZM224.54 0.2L223.02 0.2 215.55-18.51 213.06-19.24 213.16-21 222.14-21 222.24-19.24 219.7-18.51 225.37-3.66 224.14-3.61 229.96-18.51 227.42-19.24 227.51-21 235.08-21 235.18-19.24 232.89-18.51 224.54 0.2ZM210.33 0.2L208.81 0.2 200.9-18.51 198.61-19.24 198.71-21 207.74-21 207.84-19.24 205.35-18.51 211.4-3.66 209.94-3.61 216.38-18.95 217.7-15.92 210.33 0.2ZM247.29 0.39L247.29 0.39Q244.11 0.39 241.74-0.98 239.38-2.34 238.06-4.81 236.74-7.28 236.74-10.45L236.74-10.45Q236.74-13.77 238.18-16.21 239.62-18.65 242.09-20.02 244.55-21.39 247.48-21.39L247.48-21.39Q250.51-21.39 252.76-20.04 255-18.7 256.27-16.28 257.54-13.87 257.54-10.64L257.54-10.64Q257.54-7.57 256.17-5.05 254.81-2.54 252.49-1.07 250.17 0.39 247.29 0.39ZM247.78-1.9L247.78-1.9Q249.44-1.9 250.66-2.91 251.88-3.91 252.56-5.69 253.24-7.47 253.24-9.77L253.24-9.77Q253.24-13.96 251.51-16.58 249.78-19.19 246.95-19.19L246.95-19.19Q244.31-19.19 242.72-17.02 241.13-14.84 241.13-11.18L241.13-11.18Q241.13-8.45 241.99-6.35 242.84-4.25 244.36-3.08 245.87-1.9 247.78-1.9ZM272.43 0L261.15 0 261.01-1.76 264.03-2.49Q264.08-2.73 264.13-3.34 264.18-3.96 264.2-5.05 264.23-6.15 264.23-7.71L264.23-7.71 264.28-11.52Q264.28-13.13 264.15-14.72 264.03-16.31 263.89-17.19L263.89-17.19 260.76-17.87 260.76-19.48 267.3-21.29 267.99-20.61 267.79-16.5 267.94-16.46Q269.4-19.29 270.89-20.29 272.38-21.29 273.75-21.29L273.75-21.29Q274.87-21.29 275.63-20.7 276.39-20.12 276.39-19.04L276.39-19.04Q276.39-17.92 275.58-17.29 274.77-16.65 273.55-16.65L273.55-16.65Q272.68-16.65 271.87-17.04 271.06-17.43 270.33-18.12L270.33-18.12 271.21-17.82Q270.33-17.24 269.5-16.16 268.67-15.09 267.94-13.57L267.94-13.57 267.99-9.03Q268.04-7.81 268.09-6.52 268.13-5.22 268.18-4.13 268.23-3.03 268.28-2.49L268.28-2.49 272.53-1.86 272.43 0ZM288.44 0L278.73 0 278.63-1.76 281.41-2.49Q281.46-2.93 281.51-4.05 281.56-5.18 281.61-6.86 281.66-8.54 281.66-10.64L281.66-10.64 281.66-17.72Q281.66-19.53 281.63-21.48 281.61-23.44 281.58-25.2 281.56-26.95 281.51-28.2 281.46-29.44 281.46-29.83L281.46-29.83 277.85-30.32 277.75-31.88 284.64-33.89 285.61-33.2Q285.51-31.59 285.49-29.98 285.47-28.37 285.42-26.68 285.37-25 285.37-23.12 285.37-21.24 285.37-19.04L285.37-19.04 285.32-7.08Q285.32-5.81 285.37-4.86 285.42-3.91 285.47-3.32 285.51-2.73 285.51-2.49L285.51-2.49 288.54-1.76 288.44 0ZM300.75-1.81L300.6 0 295.04 0Q294.16-1.17 293.64-1.76 293.13-2.34 292.64-2.88L292.64-2.88 285.95-10.16 284.59-10.16 284.64-11.33 286.49-11.87 293.28-18.6 290.06-19.19 290.15-21 299.97-21 300.07-19.19 296.84-18.6 288.1-10.74 288.83-12.5 295.72-5.08Q296.31-4.39 297.14-3.59 297.97-2.78 298.55-2.25L298.55-2.25 300.75-1.81Z" opacity="1" transform="matrix(1,0,0,1,0,0)" fill="#ffffff" class="slogan-text-1" data-fill-palette-color="secondary" id="text-1"></path></svg></g></svg></g></svg></g></svg></g><g transform="matrix(1,0,0,1,58.2794388015036,0)"><svg viewBox="0 0 139.44112239699277 139.44112239699277" height="139.44112239699277" width="139.44112239699277"><g><svg></svg></g><g id="icon-0"><svg viewBox="0 0 139.44112239699277 139.44112239699277" height="139.44112239699277" width="139.44112239699277"><g><path d="M0 69.721c0-38.506 31.215-69.721 69.721-69.721 38.506 0 69.721 31.215 69.72 69.721 0 38.506-31.215 69.721-69.72 69.72-38.506 0-69.721-31.215-69.721-69.72zM69.721 132.714c34.791 0 62.994-28.203 62.994-62.993 0-34.791-28.203-62.994-62.994-62.994-34.791 0-62.994 28.203-62.994 62.994 0 34.791 28.203 62.994 62.994 62.993z" data-fill-palette-color="accent" fill="#ffffff" stroke="transparent"></path><ellipse rx="69.02335558651141" ry="69.02335558651141" cx="69.72056119849638" cy="69.72056119849638" fill="#ffffff" stroke="transparent" stroke-width="0" fill-opacity="1" data-fill-palette-color="accent"></ellipse></g><g transform="matrix(1,0,0,1,36.439211595803684,32.51676682120062)"><svg viewBox="0 0 66.5626992053854 74.40758875459153" height="74.40758875459153" width="66.5626992053854"><g><svg xmlns="http://www.w3.org/2000/svg" xmlns:xlink="http://www.w3.org/1999/xlink" version="1.1" x="0" y="0" viewBox="8 3.0000000000000018 84 93.89999999999999" enable-background="new 0 0 100 100" xml:space="preserve" height="74.40758875459153" width="66.5626992053854" class="icon-cg-0" data-fill-palette-color="quaternary" id="cg-0"><path d="M92 30.9c0-4.7-3.8-8.6-8.6-8.6-2.7 0-5.1 1.3-6.7 3.3L57.9 14.8c0.4-1 0.6-2 0.6-3.2 0-4.7-3.8-8.6-8.6-8.6s-8.6 3.8-8.6 8.6c0 1.1 0.2 2.2 0.6 3.1L23.3 25.7c-1.6-2-4-3.3-6.7-3.3-4.7 0-8.6 3.8-8.6 8.6 0 4.2 3.1 7.7 7.1 8.4l0 21.3C11.1 61.3 8 64.8 8 69.1c0 4.7 3.8 8.6 8.6 8.6 2.7 0 5.1-1.2 6.6-3.2L42 85.3c-0.4 0.9-0.6 2-0.6 3 0 4.7 3.8 8.6 8.6 8.6s8.6-3.8 8.6-8.6c0-1.1-0.2-2.1-0.6-3l18.8-10.9c1.6 1.9 4 3.2 6.6 3.2 4.7 0 8.6-3.8 8.6-8.6 0-4.3-3.2-7.9-7.3-8.5l0-21.2C88.8 38.8 92 35.2 92 30.9zM83.4 24.8c3.4 0 6.1 2.7 6.1 6.1S86.8 37 83.4 37c-3.4 0-6.1-2.7-6.1-6.1S80 24.8 83.4 24.8zM50 5.5c3.4 0 6.1 2.7 6.1 6.1 0 1-0.3 2-0.7 2.9 0 0-0.1 0.1-0.1 0.1 0 0 0 0.1 0 0.1-1.1 1.8-3 3-5.2 3-3.4 0-6.1-2.7-6.1-6.1S46.6 5.5 50 5.5zM10.5 30.9c0-3.4 2.7-6.1 6.1-6.1 3.4 0 6.1 2.7 6.1 6.1S20 37 16.6 37C13.2 37 10.5 34.3 10.5 30.9zM16.6 75.2c-3.4 0-6.1-2.7-6.1-6.1 0-3.4 2.7-6.1 6.1-6.1 3.4 0 6.1 2.7 6.1 6.1C22.7 72.4 20 75.2 16.6 75.2zM50 94.5c-3.4 0-6.1-2.7-6.1-6.1 0-3.4 2.7-6.1 6.1-6.1 3.4 0 6.1 2.7 6.1 6.1C56.1 91.7 53.4 94.5 50 94.5zM56.8 83.2c-1.6-2-4-3.4-6.8-3.4-2.8 0-5.2 1.3-6.8 3.4L24.5 72.4c0.4-1 0.7-2.1 0.7-3.3 0-4.4-3.3-8-7.5-8.5l0-21.2c4.2-0.5 7.5-4.1 7.5-8.5 0-1.1-0.2-2.2-0.6-3.2l18.7-10.9c1.6 2 4 3.3 6.7 3.3 2.7 0 5.1-1.3 6.7-3.3l18.8 10.9c-0.4 1-0.6 2-0.6 3.2 0 4.3 3.2 7.9 7.3 8.5l0 21.2c-4.1 0.6-7.3 4.2-7.3 8.5 0 1.2 0.2 2.3 0.7 3.3L56.8 83.2zM89.5 69.1c0 3.4-2.7 6.1-6.1 6.1-3.4 0-6.1-2.7-6.1-6.1 0-3.4 2.7-6.1 6.1-6.1C86.8 63 89.5 65.7 89.5 69.1zM69.5 64.8c0.5 0.4 0.6 1.2 0.2 1.7-0.2 0.3-0.6 0.4-0.9 0.4-0.3 0-0.5-0.1-0.8-0.3-5.1-4.2-10.5-6.9-11.6-7.4-0.6-0.3-0.9-0.8-0.9-1.4v-8c0-0.4 0.2-0.8 0.5-1 0.7-0.5 1.1-1.3 1.1-2.1v-8.3c0-3.5-2.8-6.3-6.3-6.3h-1.8c-3.5 0-6.3 2.8-6.3 6.3v8.3c0 0.8 0.4 1.6 1.1 2.1 0.3 0.2 0.5 0.6 0.5 1v8c0 0.6-0.3 1.2-0.9 1.4-1 0.5-6.5 3.3-11.6 7.4-0.5 0.4-1.3 0.4-1.7-0.2-0.4-0.5-0.4-1.3 0.2-1.7 4.7-3.9 9.8-6.6 11.6-7.5v-6.9c-1.1-0.9-1.7-2.3-1.7-3.7v-8.3c0-4.8 3.9-8.7 8.7-8.7h1.8c4.8 0 8.7 3.9 8.7 8.7v8.3c0 1.4-0.6 2.8-1.7 3.7v6.9C59.7 58.2 64.8 61 69.5 64.8z" fill="#ef86c1" data-fill-palette-color="quaternary"></path></svg></g></svg></g></svg></g></svg></g><g></g></svg></g></svg></g></svg></g><defs></defs></svg><rect width="512" height="320" fill="none" stroke="none" visibility="hidden"></rect></g></svg></g></svg>