<svg width="188" height="131" viewBox="0 0 188 131" fill="none" xmlns="http://www.w3.org/2000/svg">
<g clip-path="url(#clip0_5_402)">
<path d="M37.4578 131C58.1451 131 74.9155 129.724 74.9155 128.151C74.9155 126.577 58.1451 125.302 37.4578 125.302C16.7704 125.302 0 126.577 0 128.151C0 129.724 16.7704 131 37.4578 131Z" fill="#E6E6E6"/>
<path d="M28.632 29.0666C35.1508 26.2897 43.27 28.0491 51.1993 29.2702C51.2731 27.7915 52.1675 25.9918 51.2306 24.9601C50.0924 23.7067 50.1972 22.3898 50.8821 21.0653C52.6336 17.6783 50.1242 14.0743 47.5905 11.0777C47.0194 10.4038 46.2977 9.87429 45.4839 9.53221C44.6701 9.19013 43.7873 9.04512 42.907 9.10894L38.2135 9.4447C37.0714 9.5264 35.9815 9.95548 35.0895 10.6745C34.1976 11.3936 33.5461 12.3683 33.2224 13.4683C32.1017 14.9948 31.5019 16.5171 31.8795 18.0314C30.2009 19.1803 29.9189 20.5672 30.6732 22.1306C31.3128 23.115 31.306 24.0732 30.6441 25.0049C29.7748 26.1927 29.109 27.5172 28.674 28.924L28.632 29.0666Z" fill="#2F2E41"/>
<path d="M183.545 113.247H50.6844C49.5029 113.247 48.3698 112.777 47.5343 111.941C46.6989 111.104 46.2295 109.969 46.2295 108.786C94.3915 103.18 141.648 103.18 188 108.786C188 109.969 187.531 111.104 186.695 111.941C185.86 112.777 184.727 113.247 183.545 113.247Z" fill="#2F2E41"/>
<path d="M188 109.048L46.2295 108.786L62.6602 81.0972L62.7388 80.966V19.9436C62.7388 19.2029 62.8844 18.4695 63.1674 17.7852C63.4504 17.1009 63.8652 16.4791 64.3881 15.9554C64.9111 15.4316 65.5319 15.0162 66.2152 14.7328C66.8984 14.4493 67.6308 14.3035 68.3703 14.3036H165.073C165.813 14.3035 166.545 14.4493 167.228 14.7328C167.911 15.0162 168.532 15.4316 169.055 15.9554C169.578 16.4791 169.993 17.1009 170.276 17.7852C170.559 18.4695 170.705 19.2029 170.705 19.9436V81.3859L188 109.048Z" fill="#3F3D56"/>
<path d="M68.2419 18.2403C67.7556 18.2408 67.2893 18.4346 66.9454 18.779C66.6015 19.1234 66.4081 19.5904 66.4076 20.0774V75.717C66.4081 76.204 66.6016 76.671 66.9455 77.0154C67.2893 77.3598 67.7556 77.5535 68.2419 77.5541H165.988C166.474 77.5535 166.94 77.3598 167.284 77.0154C167.628 76.671 167.821 76.204 167.822 75.717V20.0774C167.821 19.5904 167.628 19.1234 167.284 18.779C166.94 18.4346 166.474 18.2409 165.988 18.2403H68.2419Z" fill="white"/>
<path d="M68.6515 84.9027C68.5012 84.903 68.3542 84.9463 68.2276 85.0275C68.1011 85.1087 68.0003 85.2244 67.9373 85.361L62.8745 96.3839C62.8193 96.5039 62.7952 96.6358 62.8044 96.7675C62.8135 96.8992 62.8555 97.0266 62.9267 97.1378C62.9978 97.2489 63.0957 97.3404 63.2113 97.4038C63.327 97.4672 63.4567 97.5004 63.5886 97.5004H170.057C170.191 97.5004 170.323 97.4661 170.44 97.4007C170.557 97.3353 170.655 97.2411 170.726 97.1269C170.796 97.0127 170.836 96.8824 170.842 96.7484C170.848 96.6143 170.82 96.4809 170.76 96.3609L165.257 85.3379C165.192 85.2069 165.092 85.0967 164.967 85.0198C164.843 84.9429 164.7 84.9023 164.554 84.9027H68.6515Z" fill="#2F2E41"/>
<path d="M116.722 17.3217C117.373 17.3217 117.901 16.793 117.901 16.1407C117.901 15.4884 117.373 14.9597 116.722 14.9597C116.07 14.9597 115.542 15.4884 115.542 16.1407C115.542 16.793 116.07 17.3217 116.722 17.3217Z" fill="white"/>
<path d="M106.257 99.6C106.084 99.6002 105.916 99.6574 105.779 99.7626C105.642 99.8679 105.543 100.015 105.498 100.183L104.228 104.907C104.196 105.023 104.192 105.146 104.216 105.264C104.239 105.383 104.289 105.494 104.363 105.59C104.436 105.686 104.531 105.764 104.639 105.817C104.747 105.871 104.866 105.899 104.987 105.899H129.138C129.264 105.899 129.387 105.869 129.499 105.811C129.61 105.754 129.706 105.67 129.779 105.568C129.851 105.466 129.899 105.348 129.917 105.223C129.934 105.099 129.922 104.972 129.881 104.854L128.248 100.13C128.195 99.9751 128.095 99.841 127.961 99.746C127.828 99.6511 127.669 99.6 127.506 99.6H106.257Z" fill="#2F2E41"/>
<path d="M170.704 80.0474V81.0971H62.6602L62.7415 80.9661V80.0474H170.704Z" fill="#2F2E41"/>
<path d="M167.691 36.7431C177.822 36.7431 186.035 28.5179 186.035 18.3715C186.035 8.22522 177.822 0 167.691 0C157.56 0 149.347 8.22522 149.347 18.3715C149.347 28.5179 157.56 36.7431 167.691 36.7431Z" fill="#6C63FF"/>
<path d="M175.29 26.3763H160.091C159.813 26.376 159.547 26.2653 159.35 26.0685C159.154 25.8717 159.043 25.6048 159.043 25.3265V16.1407C159.043 15.8624 159.154 15.5955 159.351 15.3987C159.547 15.2019 159.813 15.0912 160.091 15.0909H175.29C175.568 15.0912 175.835 15.2019 176.031 15.3987C176.228 15.5955 176.338 15.8624 176.339 16.1407V25.3265C176.338 25.6048 176.228 25.8717 176.031 26.0685C175.835 26.2653 175.568 26.376 175.29 26.3763ZM160.091 16.1407V25.3265H175.291L175.29 16.1407L160.091 16.1407Z" fill="white"/>
<path d="M172.408 16.1407H162.974V11.9415C162.974 8.89999 164.958 6.69247 167.691 6.69247C170.424 6.69247 172.408 8.89999 172.408 11.9415L172.408 16.1407ZM164.022 15.0909H171.36V11.9415C171.36 9.46908 169.851 7.74228 167.691 7.74228C165.531 7.74228 164.022 9.4691 164.022 11.9415L164.022 15.0909Z" fill="white"/>
<path d="M167.691 21.5209C168.27 21.5209 168.739 21.0509 168.739 20.4711C168.739 19.8913 168.27 19.4213 167.691 19.4213C167.112 19.4213 166.643 19.8913 166.643 20.4711C166.643 21.0509 167.112 21.5209 167.691 21.5209Z" fill="white"/>
<path d="M154.885 58.6818H79.3441C78.9732 58.6813 78.6176 58.5336 78.3554 58.2709C78.0931 58.0083 77.9456 57.6522 77.9452 57.2807V38.5137C77.9456 38.1423 78.0931 37.7862 78.3554 37.5235C78.6176 37.2609 78.9732 37.1131 79.3441 37.1127H154.885C155.256 37.1131 155.612 37.2609 155.874 37.5235C156.136 37.7862 156.284 38.1423 156.284 38.5137V57.2807C156.284 57.6522 156.136 58.0083 155.874 58.2709C155.612 58.5336 155.256 58.6813 154.885 58.6818ZM79.3441 37.6731C79.1215 37.6733 78.9082 37.762 78.7508 37.9196C78.5935 38.0772 78.505 38.2908 78.5047 38.5137V57.2807C78.505 57.5036 78.5935 57.7173 78.7508 57.8749C78.9082 58.0325 79.1215 58.1211 79.3441 58.1214H154.885C155.108 58.1211 155.321 58.0325 155.479 57.8749C155.636 57.7173 155.725 57.5036 155.725 57.2807V38.5137C155.725 38.2908 155.636 38.0772 155.479 37.9196C155.321 37.762 155.108 37.6733 154.885 37.6731L79.3441 37.6731Z" fill="#E6E6E6"/>
<path d="M91.0817 52.8842C94.2288 52.8842 96.7801 50.329 96.7801 47.1771C96.7801 44.0252 94.2288 41.47 91.0817 41.47C87.9345 41.47 85.3832 44.0252 85.3832 47.1771C85.3832 50.329 87.9345 52.8842 91.0817 52.8842Z" fill="#E6E6E6"/>
<path d="M104.242 43.3724C104.117 43.3722 103.994 43.3967 103.878 43.4444C103.763 43.4921 103.658 43.5621 103.57 43.6505C103.481 43.7388 103.411 43.8437 103.364 43.9592C103.316 44.0747 103.291 44.1985 103.291 44.3236C103.291 44.4486 103.316 44.5724 103.364 44.6879C103.411 44.8034 103.481 44.9084 103.57 44.9967C103.658 45.085 103.763 45.1551 103.878 45.2028C103.994 45.2505 104.117 45.275 104.242 45.2748H149.016C149.268 45.2748 149.509 45.1745 149.687 44.9962C149.865 44.8178 149.965 44.5759 149.965 44.3236C149.965 44.0713 149.865 43.8294 149.687 43.651C149.509 43.4726 149.268 43.3724 149.016 43.3724H104.242Z" fill="#E6E6E6"/>
<path d="M104.242 49.0795C103.99 49.0795 103.749 49.1797 103.571 49.3581C103.393 49.5364 103.293 49.7784 103.293 50.0306C103.293 50.2829 103.393 50.5249 103.571 50.7032C103.749 50.8816 103.99 50.9818 104.242 50.9818H123.508C123.76 50.9818 124.002 50.8816 124.18 50.7032C124.358 50.5249 124.458 50.2829 124.458 50.0306C124.458 49.7784 124.358 49.5364 124.18 49.3581C124.002 49.1797 123.76 49.0795 123.508 49.0795H104.242Z" fill="#E6E6E6"/>
<path d="M62.4743 49.4643L48.5099 56.8997L48.3331 50.7035C52.891 49.9415 57.2274 48.6147 61.237 46.4547L62.6975 42.8409C62.8566 42.4472 63.1153 42.1016 63.448 41.8382C63.7808 41.5748 64.1763 41.4025 64.5956 41.3384C65.0149 41.2743 65.4436 41.3205 65.8397 41.4724C66.2358 41.6244 66.5857 41.8769 66.8549 42.2051C67.2488 42.6854 67.4457 43.2977 67.4057 43.9179C67.3657 44.5382 67.0918 45.12 66.6395 45.5456L62.4743 49.4643Z" fill="#FFB8B8"/>
<path d="M28.3537 92.3935C28.2518 92.0193 28.2302 91.6278 28.2902 91.2446C28.3502 90.8614 28.4906 90.4953 28.702 90.1704L31.7696 85.4555C32.4951 84.3403 33.6084 83.5348 34.8935 83.1952C36.1785 82.8557 37.5437 83.0063 38.7242 83.6179C37.4349 85.8157 37.6147 87.7437 39.1694 89.4193C36.7559 90.5993 34.5252 92.1223 32.5465 93.9412C32.1852 94.1878 31.7704 94.3444 31.3365 94.398C30.9026 94.4515 30.4622 94.4005 30.052 94.2491C29.6418 94.0976 29.2736 93.8502 28.9782 93.5275C28.6828 93.2047 28.4687 92.8159 28.3537 92.3935Z" fill="#2F2E41"/>
<path d="M63.1103 86.2287C62.6461 87.0035 61.9909 87.6458 61.2075 88.094C60.424 88.5422 59.5387 88.7812 58.6365 88.788L38.2576 88.9426L37.3737 83.8087L46.3887 81.1532L38.7879 75.3111L47.0958 65.5743L62.1856 79.6599C63.0675 80.4832 63.6406 81.5847 63.8089 82.7804C63.9772 83.976 63.7306 85.1933 63.1103 86.2287Z" fill="#2F2E41"/>
<path d="M35.0758 121.34H30.3031C26.018 91.9221 21.6561 62.4223 34.5455 51.4116L49.7472 53.8901L47.8028 66.8135L39.3181 76.5503L35.0758 121.34Z" fill="#2F2E41"/>
<path d="M39.2712 128.004C38.8976 128.106 38.5066 128.127 38.124 128.067C37.7414 128.007 37.3759 127.867 37.0514 127.655L31.8693 126.957C30.7558 126.231 29.9514 125.116 29.6123 123.829C29.2732 122.542 29.4235 121.175 30.0341 119.992C32.2287 121.283 34.1538 121.103 35.8267 119.546C37.0087 121.936 38.9563 121.791 40.8163 123.804C41.0626 124.166 41.219 124.582 41.2725 125.016C41.326 125.451 41.275 125.892 41.1238 126.303C40.9727 126.713 40.7257 127.082 40.4034 127.378C40.0811 127.674 39.693 127.888 39.2712 128.004Z" fill="#2F2E41"/>
<path d="M46.3887 31.761L37.5505 29.6366C39.0184 26.6274 39.1393 23.279 38.4343 19.7227L44.4443 19.5457C44.6326 23.968 45.2023 28.0995 46.3887 31.761Z" fill="#FFB8B8"/>
<path d="M48.8178 59.2204C42.3839 63.6113 37.8379 59.3707 34.3687 52.8279C34.8508 48.8243 34.0703 44.0332 32.6246 38.8273C31.9817 36.5311 32.2218 34.0769 33.2973 31.9493C34.3729 29.8218 36.2059 28.1753 38.4343 27.3351L46.0352 30.5217C52.4892 35.7905 53.7595 41.4976 51.3381 47.5169L48.8178 59.2204Z" fill="#6C63FF"/>
<path d="M30.3031 36.1868L23.2326 39.9045L35.7828 47.3399L37.5291 51.6539C37.6457 51.9419 37.7025 52.2506 37.696 52.5612C37.6896 52.8718 37.62 53.1779 37.4916 53.4607C37.3632 53.7436 37.1786 53.9972 36.9491 54.2063C36.7196 54.4153 36.4499 54.5754 36.1567 54.6767C35.8233 54.7918 35.4678 54.8281 35.1181 54.7827C34.7683 54.7372 34.4339 54.6114 34.1408 54.4149C33.8478 54.2184 33.6042 53.9566 33.429 53.6501C33.2538 53.3435 33.1519 53.0005 33.1312 52.6479L32.9546 49.6413L17.0033 44.3694C16.4659 44.1918 15.9759 43.894 15.5704 43.4986C15.1649 43.1032 14.8545 42.6206 14.6628 42.0873C14.3834 41.3099 14.3691 40.4617 14.6223 39.6754C14.8756 38.8891 15.3819 38.209 16.0622 37.7416L28.889 28.9284L30.3031 36.1868Z" fill="#FFB8B8"/>
<path d="M37.3737 36.8949C34.4249 35.6006 31.7434 37.0066 28.3587 38.1342L27.8284 28.7514C31.1892 26.9574 34.3935 26.4737 37.3737 27.8662L37.3737 36.8949Z" fill="#6C63FF"/>
<path d="M40.9012 24.1933C44.0177 24.1933 46.5441 21.6631 46.5441 18.5418C46.5441 15.4206 44.0177 12.8904 40.9012 12.8904C37.7848 12.8904 35.2584 15.4206 35.2584 18.5418C35.2584 21.6631 37.7848 24.1933 40.9012 24.1933Z" fill="#FFB8B8"/>
<path d="M47.6519 17.8288C42.065 18.3768 37.8078 17.4617 35.087 14.8561V12.7577H47.1778L47.6519 17.8288Z" fill="#2F2E41"/>
</g>
<defs>
<clipPath id="clip0_5_402">
<rect width="188" height="131" fill="white"/>
</clipPath>
</defs>
</svg>
