<svg width="183" height="184" viewBox="0 0 183 184" fill="none" xmlns="http://www.w3.org/2000/svg">
<g clip-path="url(#clip0_5_470)">
<path d="M17.5984 155.004L15.9867 148.632C13.129 147.418 10.2054 146.366 7.22961 145.482L7.02618 148.444L6.20116 145.181C2.51068 144.123 0 143.658 0 143.658C0 143.658 3.39049 156.586 10.5041 166.469L18.7922 167.929L12.3534 168.859C13.2482 169.939 14.2099 170.961 15.2326 171.919C25.5798 181.547 37.1047 185.964 40.9741 181.785C44.8434 177.606 39.5921 166.414 29.2449 156.787C26.0373 153.802 22.0077 151.407 17.974 149.521L17.5984 155.004Z" fill="#F2F2F2"/>
<path d="M32.9258 148.083L34.8319 141.793C33.0118 139.273 31.0514 136.858 28.9599 134.559L27.2588 136.989L28.2347 133.768C25.6203 130.951 23.7111 129.252 23.7111 129.252C23.7111 129.252 19.9483 142.076 20.9409 154.222L27.2834 159.766L21.2905 157.227C21.5002 158.615 21.7968 159.988 22.1785 161.338C26.0716 174.942 33.6597 184.696 39.1267 183.123C44.5938 181.551 45.8699 169.248 41.9767 155.644C40.7699 151.427 38.5553 147.289 36.0746 143.585L32.9258 148.083Z" fill="#F2F2F2"/>
<path d="M127.696 43.5897H126.691V15.9802C126.691 13.8817 126.279 11.8037 125.478 9.86487C124.677 7.92606 123.502 6.16441 122.022 4.6805C120.542 3.1966 118.785 2.0195 116.851 1.21642C114.916 0.41334 112.844 0 110.75 0H52.3976C48.1698 0 44.1152 1.68363 41.1257 4.6805C38.1362 7.67738 36.4567 11.742 36.4567 15.9802V167.451C36.4567 169.549 36.869 171.627 37.6701 173.566C38.4712 175.505 39.6454 177.266 41.1257 178.75C42.6059 180.234 44.3632 181.411 46.2973 182.214C48.2313 183.017 50.3042 183.431 52.3976 183.431H110.75C114.978 183.431 119.033 181.747 122.022 178.75C125.011 175.753 126.691 171.689 126.691 167.451V63.2427H127.696L127.696 43.5897Z" fill="#E6E6E6"/>
<path d="M111.393 4.15594H103.777C104.127 5.01689 104.261 5.95098 104.166 6.87592C104.072 7.80087 103.751 8.68828 103.234 9.45997C102.717 10.2317 102.018 10.8639 101.199 11.3011C100.381 11.7383 99.4674 11.9669 98.5399 11.9669H65.1104C64.1829 11.9668 63.2697 11.7381 62.4511 11.3009C61.6326 10.8637 60.9339 10.2314 60.4165 9.45976C59.8992 8.68809 59.5791 7.80071 59.4845 6.8758C59.3898 5.95089 59.5235 5.01685 59.8738 4.15594H52.7597C49.6024 4.15594 46.5744 5.41326 44.3419 7.6513C42.1093 9.88934 40.8551 12.9248 40.8551 16.0898V167.34C40.8551 170.505 42.1093 173.541 44.3419 175.779C46.5744 178.017 49.6024 179.274 52.7597 179.274H111.393C114.551 179.274 117.579 178.017 119.811 175.779C122.044 173.541 123.298 170.505 123.298 167.34V16.0896C123.298 12.9246 122.044 9.8892 119.811 7.65121C117.578 5.41323 114.551 4.15594 111.393 4.15594Z" fill="white"/>
<path d="M74.605 64.4064C74.6048 63.3492 74.8824 62.3106 75.4099 61.3951C75.9374 60.4796 76.6961 59.7195 77.6098 59.1914C76.6966 58.6627 75.6607 58.3843 74.6061 58.3842C73.5516 58.3841 72.5156 58.6622 71.6023 59.1907C70.689 59.7192 69.9306 60.4794 69.4033 61.3949C68.876 62.3104 68.5984 63.3489 68.5984 64.4061C68.5984 65.4632 68.876 66.5017 69.4033 67.4172C69.9306 68.3327 70.689 69.0929 71.6023 69.6214C72.5156 70.1499 73.5516 70.428 74.6061 70.4279C75.6607 70.4278 76.6966 70.1494 77.6098 69.6207C76.6962 69.0927 75.9375 68.3328 75.41 67.4174C74.8825 66.5021 74.6049 65.4635 74.605 64.4064Z" fill="#CCCCCC"/>
<path d="M82.1568 64.4064C82.1566 63.3492 82.4342 62.3106 82.9616 61.3951C83.4891 60.4796 84.2479 59.7195 85.1615 59.1914C84.2483 58.6627 83.2124 58.3843 82.1579 58.3842C81.1034 58.3841 80.0674 58.6622 79.1541 59.1907C78.2408 59.7192 77.4824 60.4794 76.955 61.3949C76.4277 62.3104 76.1501 63.3489 76.1501 64.4061C76.1501 65.4632 76.4277 66.5017 76.955 67.4172C77.4824 68.3327 78.2408 69.0929 79.1541 69.6214C80.0674 70.1499 81.1034 70.428 82.1579 70.4279C83.2124 70.4278 84.2483 70.1494 85.1615 69.6207C84.248 69.0927 83.4892 68.3328 82.9618 67.4174C82.4343 66.5021 82.1566 65.4635 82.1568 64.4064Z" fill="#CCCCCC"/>
<path d="M89.537 70.428C92.8546 70.428 95.544 67.732 95.544 64.4062C95.544 61.0804 92.8546 58.3843 89.537 58.3843C86.2194 58.3843 83.5299 61.0804 83.5299 64.4062C83.5299 67.732 86.2194 70.428 89.537 70.428Z" fill="#6C63FF"/>
<path d="M99.5763 83.2149H64.5658C64.2325 83.2145 63.9129 83.0816 63.6772 82.8453C63.4416 82.609 63.309 82.2887 63.3086 81.9546V46.8578C63.309 46.5237 63.4416 46.2033 63.6772 45.9671C63.9129 45.7308 64.2325 45.5979 64.5658 45.5975H99.5763C99.9096 45.5979 100.229 45.7308 100.465 45.9671C100.7 46.2033 100.833 46.5237 100.833 46.8578V81.9546C100.833 82.2887 100.7 82.609 100.465 82.8453C100.229 83.0816 99.9096 83.2145 99.5763 83.2149ZM64.5658 46.1019C64.3658 46.1021 64.1741 46.1818 64.0326 46.3236C63.8912 46.4653 63.8117 46.6576 63.8115 46.858V81.9548C63.8117 82.1553 63.8912 82.3475 64.0326 82.4893C64.1741 82.631 64.3658 82.7107 64.5658 82.7109H99.5763C99.7763 82.7107 99.968 82.631 100.109 82.4893C100.251 82.3475 100.33 82.1553 100.331 81.9548V46.858C100.33 46.6576 100.251 46.4653 100.109 46.3236C99.968 46.1818 99.7763 46.1021 99.5763 46.1019H64.5658Z" fill="#CCCCCC"/>
<path d="M107.394 110.118H53.698V110.622H107.394V110.118Z" fill="#CCCCCC"/>
<path d="M55.3937 106.971C56.3303 106.971 57.0895 106.209 57.0895 105.271C57.0895 104.332 56.3303 103.571 55.3937 103.571C54.4572 103.571 53.698 104.332 53.698 105.271C53.698 106.209 54.4572 106.971 55.3937 106.971Z" fill="#6C63FF"/>
<path d="M107.394 127.116H53.698V127.621H107.394V127.116Z" fill="#CCCCCC"/>
<path d="M55.3937 123.969C56.3303 123.969 57.0895 123.208 57.0895 122.269C57.0895 121.33 56.3303 120.569 55.3937 120.569C54.4572 120.569 53.698 121.33 53.698 122.269C53.698 123.208 54.4572 123.969 55.3937 123.969Z" fill="#6C63FF"/>
<path d="M106.411 146.473H89.4417C89.1485 146.473 88.8675 146.356 88.6602 146.148C88.453 145.94 88.3364 145.659 88.3361 145.365V139.403C88.3364 139.109 88.453 138.827 88.6602 138.619C88.8675 138.411 89.1485 138.295 89.4417 138.294H106.411C106.704 138.295 106.985 138.411 107.192 138.619C107.4 138.827 107.516 139.109 107.516 139.403V145.365C107.516 145.659 107.4 145.94 107.192 146.148C106.985 146.356 106.704 146.473 106.411 146.473Z" fill="#6C63FF"/>
<path d="M60.9251 106.971C61.8616 106.971 62.6208 106.209 62.6208 105.271C62.6208 104.332 61.8616 103.571 60.9251 103.571C59.9886 103.571 59.2294 104.332 59.2294 105.271C59.2294 106.209 59.9886 106.971 60.9251 106.971Z" fill="#6C63FF"/>
<path d="M66.4566 106.971C67.3931 106.971 68.1523 106.209 68.1523 105.271C68.1523 104.332 67.3931 103.571 66.4566 103.571C65.5201 103.571 64.7609 104.332 64.7609 105.271C64.7609 106.209 65.5201 106.971 66.4566 106.971Z" fill="#6C63FF"/>
<path d="M60.9251 123.969C61.8616 123.969 62.6208 123.208 62.6208 122.269C62.6208 121.33 61.8616 120.569 60.9251 120.569C59.9886 120.569 59.2294 121.33 59.2294 122.269C59.2294 123.208 59.9886 123.969 60.9251 123.969Z" fill="#6C63FF"/>
<path d="M66.4566 123.969C67.3931 123.969 68.1523 123.208 68.1523 122.269C68.1523 121.33 67.3931 120.569 66.4566 120.569C65.5201 120.569 64.7609 121.33 64.7609 122.269C64.7609 123.208 65.5201 123.969 66.4566 123.969Z" fill="#6C63FF"/>
<path d="M182.317 184H5.91617C5.53855 184 5.23267 183.866 5.23267 183.7C5.23267 183.535 5.53855 183.4 5.91617 183.4H182.317C182.694 183.4 183 183.534 183 183.7C183 183.866 182.694 184 182.317 184Z" fill="#3F3D56"/>
<path d="M138.734 120.551C138.855 120.606 138.971 120.671 139.081 120.745L150.1 116.03L150.494 113.12L154.897 113.093L154.637 119.767L140.092 123.623C140.061 123.724 140.025 123.824 139.982 123.921C139.772 124.371 139.434 124.748 139.01 125.006C138.586 125.264 138.096 125.39 137.601 125.37C137.106 125.349 136.628 125.182 136.227 124.89C135.826 124.598 135.52 124.194 135.348 123.728C135.175 123.263 135.144 122.756 135.258 122.273C135.371 121.789 135.625 121.35 135.987 121.011C136.349 120.671 136.802 120.446 137.291 120.365C137.78 120.283 138.282 120.348 138.734 120.551Z" fill="#FFB8B8"/>
<path d="M156.498 181.031H153.486L152.053 169.384L156.499 169.384L156.498 181.031Z" fill="#FFB8B8"/>
<path d="M151.335 180.168H157.144V183.834H147.677C147.677 182.862 148.062 181.929 148.748 181.242C149.434 180.554 150.364 180.168 151.335 180.168Z" fill="#2F2E41"/>
<path d="M168.213 180.178L165.215 180.474L162.65 169.024L167.074 168.587L168.213 180.178Z" fill="#FFB8B8"/>
<path d="M162.99 179.826L168.771 179.256L169.129 182.904L159.708 183.835C159.661 183.355 159.709 182.872 159.848 182.411C159.987 181.95 160.216 181.521 160.521 181.149C160.825 180.777 161.2 180.469 161.624 180.242C162.047 180.015 162.512 179.874 162.99 179.826Z" fill="#2F2E41"/>
<path d="M157.337 100.767C160.669 100.767 163.371 98.0588 163.371 94.7179C163.371 91.377 160.669 88.6687 157.337 88.6687C154.004 88.6687 151.302 91.377 151.302 94.7179C151.302 98.0588 154.004 100.767 157.337 100.767Z" fill="#FFB8B8"/>
<path d="M152.813 178.675C152.554 178.676 152.303 178.585 152.105 178.418C151.906 178.252 151.773 178.02 151.728 177.765C150.169 169.089 145.073 140.721 144.951 139.935C144.948 139.917 144.947 139.899 144.947 139.881V137.765C144.947 137.688 144.971 137.613 145.016 137.551L145.689 136.605C145.721 136.56 145.763 136.522 145.812 136.496C145.86 136.469 145.915 136.454 145.97 136.451C149.808 136.271 162.378 135.742 162.985 136.503C163.595 137.267 163.38 139.583 163.33 140.04L163.333 140.087L168.98 176.291C169.024 176.58 168.953 176.875 168.782 177.111C168.612 177.348 168.355 177.508 168.067 177.556L164.54 178.139C164.277 178.181 164.008 178.127 163.782 177.987C163.555 177.848 163.386 177.631 163.305 177.377C162.215 173.882 158.557 162.127 157.289 157.578C157.281 157.549 157.263 157.524 157.238 157.508C157.213 157.492 157.183 157.485 157.153 157.489C157.124 157.493 157.097 157.508 157.077 157.531C157.058 157.553 157.048 157.582 157.048 157.612C157.111 161.948 157.264 173.011 157.317 176.832L157.323 177.244C157.325 177.522 157.223 177.792 157.037 177.999C156.851 178.205 156.594 178.335 156.317 178.361L152.916 178.671C152.881 178.674 152.847 178.675 152.813 178.675Z" fill="#2F2E41"/>
<path d="M153.507 103.146C152.454 103.773 151.824 104.926 151.462 106.1C150.793 108.273 150.39 110.519 150.262 112.789L149.88 119.587L145.149 137.608C149.249 141.086 151.615 140.296 157.134 137.451C162.653 134.606 163.284 138.399 163.284 138.399L164.388 123.066L165.965 106.31C165.611 105.882 165.21 105.496 164.77 105.158C163.313 104.022 161.617 103.232 159.811 102.849C158.004 102.465 156.135 102.497 154.343 102.943L153.507 103.146Z" fill="#6C63FF"/>
<path d="M151.97 124.191C152.098 124.239 152.221 124.297 152.339 124.364L163.235 118.897L163.416 115.935L167.91 115.625L168.151 122.376L153.59 127.203C153.471 127.714 153.2 128.177 152.812 128.53C152.425 128.883 151.939 129.109 151.42 129.179C150.901 129.248 150.373 129.157 149.907 128.919C149.44 128.68 149.057 128.305 148.809 127.843C148.56 127.381 148.458 126.854 148.516 126.332C148.573 125.81 148.788 125.319 149.131 124.922C149.474 124.526 149.93 124.243 150.437 124.113C150.944 123.982 151.479 124.009 151.97 124.191Z" fill="#FFB8B8"/>
<path d="M165.886 106.386C168.567 107.335 169.039 117.611 169.039 117.611C165.885 115.872 162.1 118.718 162.1 118.718C162.1 118.718 161.312 116.03 160.366 112.552C160.08 111.574 160.046 110.539 160.266 109.544C160.487 108.549 160.955 107.626 161.627 106.861C161.627 106.861 163.205 105.437 165.886 106.386Z" fill="#6C63FF"/>
<path d="M162.747 96.3176C161.995 95.7146 160.97 96.8107 160.97 96.8107L160.368 91.3839C160.368 91.3839 156.609 91.8354 154.203 91.2333C151.797 90.6312 151.421 93.4192 151.421 93.4192C151.297 92.293 151.272 91.1581 151.346 90.0275C151.496 88.6708 153.451 87.3142 156.91 86.4096C160.368 85.5051 162.173 89.4245 162.173 89.4245C164.579 90.6303 163.499 96.9207 162.747 96.3176Z" fill="#2F2E41"/>
</g>
<defs>
<clipPath id="clip0_5_470">
<rect width="183" height="184" fill="white"/>
</clipPath>
</defs>
</svg>
